<svg version="1.2" xmlns="http://www.w3.org/2000/svg" viewBox="0 0 512 512" width="512" height="512">
	<title>smartschool_app_icon-svg</title>
	<defs>
		<linearGradient id="g1" x1="131072" y1="0" x2="131072" y2="262144" gradientUnits="userSpaceOnUse">
			<stop offset="0" stop-color="#ff840e"/>
			<stop offset=".084" stop-color="#ff710e"/>
			<stop offset=".735" stop-color="#ff0000"/>
			<stop offset="1" stop-color="#f10a00"/>
		</linearGradient>
	</defs>
	<style>
		.s0 { fill: url(#g1) } 
		.s1 { fill: #ffffff } 
	</style>
	<g id="Layer">
		<path id="Layer" fill-rule="evenodd" class="s0" d="m0 51.2v409.6c0 29.4 21.8 51.2 51.2 51.2h409.6c29.4 0 51.2-21.8 51.2-51.2v-409.6c0-29.4-21.8-51.2-51.2-51.2h-409.6c-29.4 0-51.2 21.8-51.2 51.2z"/>
		<path id="Layer" fill-rule="evenodd" class="s1" d="m137.2 419.1c20.7 12.5 62 23.3 102.3 23.3 96.7 0 142.5-51.1 142.5-110.3 0-52.8-31.3-84.9-96.7-108.8-50.3-19-72.1-32.1-72.1-60.3 0-21.8 18.5-44.1 62.1-44.1 35.2 0 61.5 10.3 75.4 17.4l16.2-53.8c-19.5-9.8-49.1-18.5-90-18.5-82.1 0-133.6 45.1-133.6 105.5 0 52.7 39.7 84.8 102.3 106.6 47.6 16.8 66.6 33.1 66.6 60.9 0 29.9-24.6 50-68.2 50-35.3 0-69.4-10.9-91.2-23.4z"/>
		<path id="Shape 1" class="s1" d="m415.7 197.2l19.5-4.6 24.1 101.2-19.5 4.6zm70.1 26.5l4.6 19.4-101.2 24.1-4.6-19.4z"/>
		<path id="Shape 2" class="s1" d="m847 198h100v100h-100z"/>
	</g>
</svg>